<svg height="512" viewBox="0 0 60 60" width="512" xmlns="http://www.w3.org/2000/svg"><g id="Page-1" fill="none" fill-rule="evenodd"><g id="019---Back-Of-Car" fill="rgb(0,0,0)" fill-rule="nonzero"><path id="Shape" d="m15 26.21-1.91 7c-.2470033.9048291-.0566078 1.8731077.5145984 2.6170498.5712062.743942 1.4574775 1.1779203 2.3954016 1.1729502h2c0 3.8659932 3.1340068 7 7 7s7-3.1340068 7-7h12c.9344114-.0012814 1.814869-.4378834 2.3814586-1.1809195.5665895-.7430361.7546042-1.7076486.5085414-2.6090805l-1.91-7c-.3557822-1.3033903-1.5389249-2.2081466-2.89-2.21h-24.18c-1.3584999-.0071883-2.5522757.8994249-2.91 2.21zm10 15.79c-2.7614237 0-5-2.2385763-5-5s2.2385763-5 5-5 5 2.2385763 5 5-2.2385763 5-5 5zm-7.09-16h24.18c.4620038-.017082.8754894.2847625 1 .73l1.91 7c.0865228.307696.0207452.6382135-.1769906.8893381-.1977359.2511245-.5036028.3925954-.8230094.3806619h-12.29c-.8824731-2.9696569-3.6119972-5.0060341-6.71-5.0060341s-5.8275269 2.0363772-6.71 5.0060341h-2.29c-.3194066.0119335-.6252735-.1295374-.8230094-.3806619-.1977358-.2511246-.2635134-.5816421-.1769906-.8893381l1.9-7c.1253565-.4490072.5443337-.7518323 1.01-.73z"/><circle id="Oval" cx="25" cy="37" r="1"/><path id="Shape" d="m59 2c.5522847 0 1-.44771525 1-1s-.4477153-1-1-1h-58c-.55228475 0-1 .44771525-1 1s.44771525 1 1 1h25.41l-8.68 18h-1.52c-1.7511498-.0004871-3.299033 1.138139-3.82 2.81l-2.25 7.19h-2.14c-1.65685425 0-3 1.3431458-3 3s1.34314575 3 3 3h.27l-.22.7c-.03186503.0968658-.04872667.1980356-.05.3v3.18l-7.74 16c-.17685616.3714524-.26582044.7786351-.26 1.19 0 1.4525089 1.17749111 2.63 2.63 2.63h54.74c1.4525089 0 2.63-1.1774911 2.63-2.63-.0017036-.3945048-.0904831-.7837684-.26-1.14l-7.74-16.05v-3.18c.0150853-.0994311.0150853-.2005689 0-.3l-.22-.7h.22c1.6568542 0 3-1.3431458 3-3s-1.3431458-3-3-3h-2.14l-2.25-7.19c-.520967-1.671861-2.0688502-2.8104871-3.82-2.81h-1.52l-8.68-18zm-11 52h-37c-.5522847 0-1-.4477153-1-1v-1h40v1c0 .5522847-.4477153 1-1 1zm-27 2h18v1c.0027046.3411432.0635775.679326.18 1h-18.36c.1164225-.320674.1772954-.6588568.18-1zm29-10h-3v-4c0-.5522847.4477153-1 1-1h2zm0 2v2h-40v-2zm-37-2h-3v-5h2c.5522847 0 1 .4477153 1 1zm-5-12c-.55228475 0-1-.4477153-1-1 .00373577-.2687063.11546434-.5246007.31-.71.17923381-.1890372.42953526-.2942364.69-.29h1.52l-.63 2zm-6 23.37c-.00024699-.0933333.02024684-.1855556.06-.27l5.94-12.31v8.21c0 1.6568542 1.34314575 3 3 3v1c.0027046.3411432.0635775.679326.18 1h-8.55c-.34793939 0-.63-.2820606-.63-.63zm12 .63c-.5522847 0-1-.4477153-1-1v-1h6v1c0 .5522847-.4477153 1-1 1zm28 0c-.5522847 0-1-.4477153-1-1v-1h6v1c0 .5522847-.4477153 1-1 1zm15.94-.9c.0926408.1953036.0786839.4244659-.0369737.6070833-.1156577.1826174-.3168649.2931878-.5330263.2929167l-8.55.0000005c.1164225-.3206745.1772954-.6588573.18-1.0000005v-1c1.6568542 0 3-1.3431458 3-3v-8.21zm-5.94-25.1c.2687063.0037358.5246007.1154643.71.31.1890372.1792338.2942364.4295353.29.69 0 .5522847-.4477153 1-1 1h-.89l-.63-2zm-6.3-8.6 4.3 13.75v1.85h-2c-1.6568542 0-3 1.3431458-3 3v4h-30v-4c0-1.6568542-1.3431458-3-3-3h-2v-1.85l4.3-13.75c.2622651-.8339516 1.0357818-1.4009272 1.91-1.4h27.58c.8742182-.0009272 1.6477349.5660484 1.91 1.4zm-5.65-3.4h-20.05l8.63-18h2.74z"/><path id="Shape" d="m30 8c.5522847 0 1-.44771525 1-1v-2c0-.55228475-.4477153-1-1-1s-1 .44771525-1 1v2c0 .55228475.4477153 1 1 1z"/><path id="Shape" d="m30 18c.5522847 0 1-.4477153 1-1v-5c0-.5522847-.4477153-1-1-1s-1 .4477153-1 1v5c0 .5522847.4477153 1 1 1z"/></g></g></svg>